<?xml version="1.0" encoding="UTF-8" standalone="no"?>
<!-- Generator: Adobe Illustrator 16.0.0, SVG Export Plug-In . SVG Version: 6.00 Build 0)  -->

<svg
   version="1.1"
   id="Layer_1"
   x="0px"
   y="0px"
   width="1000"
   height="422.39017"
   viewBox="0 0 999.99999 422.39016"
   enable-background="new 0 0 1000 608.645"
   xml:space="preserve"
   sodipodi:docname="Fox.svg"
   inkscape:version="1.1.2 (b8e25be833, 2022-02-05)"
   xmlns:inkscape="http://www.inkscape.org/namespaces/inkscape"
   xmlns:sodipodi="http://sodipodi.sourceforge.net/DTD/sodipodi-0.dtd"
   xmlns="http://www.w3.org/2000/svg"
   xmlns:svg="http://www.w3.org/2000/svg"><defs
   id="defs19">
	
	
	
	
	
	
</defs><sodipodi:namedview
   id="namedview17"
   pagecolor="#ffffff"
   bordercolor="#666666"
   borderopacity="1.0"
   inkscape:pageshadow="2"
   inkscape:pageopacity="0.0"
   inkscape:pagecheckerboard="0"
   showgrid="false"
   inkscape:zoom="0.5"
   inkscape:cx="507"
   inkscape:cy="124"
   inkscape:window-width="1366"
   inkscape:window-height="705"
   inkscape:window-x="-8"
   inkscape:window-y="-8"
   inkscape:window-maximized="1"
   inkscape:current-layer="Layer_1" />

<g
   id="g830"><path
     style="display:inline;fill:#111212;fill-opacity:1;stroke-width:1.00007"
     d="M 0,0 V 422.39016 H 127.84344 V 286.06547 H 244.07719 V 170.49177 H 127.84344 V 115.2085 H 270.37039 L 262.63124,0 Z"
     id="path8051" /><path
     id="path8458"
     style="display:inline;fill:#111212;fill-opacity:1;stroke-width:1.00007"
     d="M 475.47971,0 C 358.47737,0 264.28366,94.19368 264.28365,211.19606 c 10e-6,117.00233 94.19371,211.1941 211.19606,211.1941 117.00235,0 211.1941,-94.19177 211.1941,-211.1941 C 686.67381,94.19368 592.48206,0 475.47971,0 Z m 0,86.988239 c 19.75546,0 35.65729,15.901801 35.65729,35.657281 v 177.0991 c 0,19.75548 -15.90184,35.65925 -35.65729,35.65925 -19.75546,0 -35.65924,-15.90377 -35.65924,-35.65925 v -177.0991 c 0,-19.75548 15.90378,-35.657281 35.65924,-35.657281 z" /><path
     id="path8456"
     style="display:inline;fill:#111212;fill-opacity:1;stroke-width:1.00008"
     d="M 623.31711,0 743.15476,211.19489 623.31711,422.38978 H 760.3266 l 51.33194,-90.46856 51.33387,90.46856 H 1000 L 880.16426,211.19489 1000,0 H 862.99241 L 811.65854,90.466616 760.32856,0 Z" /></g></svg>
