<?xml version="1.0" encoding="UTF-8" standalone="no"?>
<svg
   xmlns:dc="http://purl.org/dc/elements/1.1/"
   xmlns:cc="http://creativecommons.org/ns#"
   xmlns:rdf="http://www.w3.org/1999/02/22-rdf-syntax-ns#"
   xmlns:svg="http://www.w3.org/2000/svg"
   xmlns="http://www.w3.org/2000/svg"
   xmlns:sodipodi="http://sodipodi.sourceforge.net/DTD/sodipodi-0.dtd"
   xmlns:inkscape="http://www.inkscape.org/namespaces/inkscape"
   width="240.09709mm"
   height="35.746826mm"
   viewBox="0 0 240.09709 35.746826"
   version="1.1"
   id="svg8"
   inkscape:version="1.0.1 (3bc2e813f5, 2020-09-07)"
   sodipodi:docname="MSNBC_2021.svg">
  <defs
     id="defs2">
    <clipPath
       id="clipPath3332"
       clipPathUnits="userSpaceOnUse">
      <path
         inkscape:connector-curvature="0"
         id="path3334"
         d="M 0,0 H 612 V 792 H 0 Z" />
    </clipPath>
  </defs>
  <sodipodi:namedview
     id="base"
     pagecolor="#ffffff"
     bordercolor="#666666"
     borderopacity="1.0"
     inkscape:pageopacity="0.0"
     inkscape:pageshadow="2"
     inkscape:zoom="0.24748737"
     inkscape:cx="-38.329985"
     inkscape:cy="44.735734"
     inkscape:document-units="mm"
     inkscape:current-layer="g1197"
     inkscape:document-rotation="0"
     showgrid="false"
     fit-margin-top="0"
     fit-margin-left="0"
     fit-margin-right="0"
     fit-margin-bottom="0"
     inkscape:window-width="1360"
     inkscape:window-height="706"
     inkscape:window-x="-8"
     inkscape:window-y="-8"
     inkscape:window-maximized="1" />
  <metadata
     id="metadata5">
    <rdf:RDF>
      <cc:Work
         rdf:about="">
        <dc:format>image/svg+xml</dc:format>
        <dc:type
           rdf:resource="http://purl.org/dc/dcmitype/StillImage" />
        <dc:title />
      </cc:Work>
    </rdf:RDF>
  </metadata>
  <g
     inkscape:label="Layer 1"
     inkscape:groupmode="layer"
     id="layer1"
     transform="translate(-358.25127,-204.25065)">
    <g
       id="g1197"
       transform="matrix(2.1929825,0,0,2.1929825,204.33094,-288.23742)">
      <g
         id="g892"
         style="fill:#000000;fill-opacity:1">
        <path
           d="m 98.417261,225.15351 v 15.34809 h 4.112209 v -10.76946 l 3.44145,10.76946 h 2.82097 l 3.77221,-10.87694 v 10.87694 l 3.99409,0.0236 v -15.34809 l -6.26531,-0.0236 -2.59601,7.98202 -2.62387,-7.98202 z"
           style="font-style:normal;font-variant:normal;font-weight:bold;font-stretch:normal;font-size:22.3864px;line-height:1.25;font-family:'Helvetica Neue';-inkscape-font-specification:'Helvetica Neue, Bold';font-variant-ligatures:normal;font-variant-caps:normal;font-variant-numeric:normal;font-variant-east-asian:normal;fill:#000000;fill-opacity:1;stroke:none;stroke-width:0.559661"
           id="path851"
           sodipodi:nodetypes="cccccccccccccc" />
        <path
           d="m 133.32654,225.15351 v 15.34809 h 4.14416 v -9.00552 l 5.39989,9.00552 h 4.71472 v -15.34809 h -4.01054 v 9.29428 l -5.42343,-9.29428 z"
           style="font-style:normal;font-variant:normal;font-weight:bold;font-stretch:normal;font-size:22.3864px;line-height:1.25;font-family:'Helvetica Neue';-inkscape-font-specification:'Helvetica Neue, Bold';font-variant-ligatures:normal;font-variant-caps:normal;font-variant-numeric:normal;font-variant-east-asian:normal;fill:#000000;fill-opacity:1;stroke:none;stroke-width:0.563637"
           id="path855"
           sodipodi:nodetypes="ccccccccccc" />
        <path
           id="path857"
           style="font-style:normal;font-variant:normal;font-weight:bold;font-stretch:normal;font-size:22.3864px;line-height:1.25;font-family:'Helvetica Neue';-inkscape-font-specification:'Helvetica Neue, Bold';font-variant-ligatures:normal;font-variant-caps:normal;font-variant-numeric:normal;font-variant-east-asian:normal;fill:#000000;fill-opacity:1;stroke:none;stroke-width:2.11525"
           d="m 565.72852,850.97461 v 58.00781 h 27.39257 c 2.81972,0 6.56164,0.0541 9.20508,-0.5957 2.70218,-0.64997 5.3346,-1.52677 7.39063,-2.88086 2.11476,-1.35409 3.91483,-2.77047 5.14843,-4.88281 1.23364,-2.1665 1.91407,-4.20803 1.91407,-7.13282 0,-3.62891 -1.03215,-6.968 -2.97071,-9.51367 -1.87978,-2.59978 -3.68542,-3.65642 -7.5625,-4.68554 1.89343,-0.83653 4.34582,-1.81992 5.90235,-3.97266 1.46861,-1.94986 2.83398,-3.94657 2.83398,-7.81836 0,-3.52891 -1.19274,-7.19167 -2.1914,-9.0332 -0.93986,-1.84154 -2.35487,-3.43042 -4.11719,-4.51368 -1.76232,-1.13741 -2.6773,-1.7606 -5.14453,-2.24804 -2.4672,-0.48749 -5.1994,-0.73047 -8.19532,-0.73047 z m 15.85351,12.68945 h 10.68359 c 8.94906,0 8.64552,9.99219 0,9.99219 h -10.68359 z m 0,20.77149 h 11.93164 c 9.99526,0 9.65624,12.32812 0,12.32812 h -11.93164 z"
           transform="scale(0.26458333)" />
        <path
           style="fill:#000000;fill-opacity:1;stroke:none;stroke-width:0.264583px;stroke-linecap:butt;stroke-linejoin:miter;stroke-opacity:1"
           d="m 117.92857,235.62091 c 0.16536,-0.0472 3.70889,-0.59059 3.70889,-0.59059 0,0 0.49928,2.57496 3.63802,2.57496 1.35277,0 2.43322,-0.60792 2.43322,-1.63003 0,-1.30525 -2.48046,-1.44102 -2.48046,-1.44102 0,0 -6.33111,0.34812 -6.33111,-4.74833 0,-2.8255 2.37728,-4.86644 6.1185,-4.86644 5.82094,0 6.37834,4.06324 6.37834,4.06324 l -3.44903,0.77958 c 0,0 -0.62739,-1.81902 -2.78757,-1.81902 -0.88321,0 -2.1025,0.61054 -2.1025,1.46466 0,1.16663 2.03162,1.44104 2.03162,1.44104 0,0 3.42811,0.0884 4.70108,1.03944 1.10251,0.8237 2.1403,1.60034 2.10249,3.68525 -0.0412,2.26955 -1.09175,3.30934 -2.51456,4.2823 -1.08611,0.7427 -2.873,1.01916 -4.18877,1.01916 -6.2631,0 -7.25816,-5.2542 -7.25816,-5.2542 z"
           id="path867"
           sodipodi:nodetypes="ccsscssccsscssssc" />
        <path
           style="fill:#000000;fill-opacity:1;stroke:none;stroke-width:0.264583px;stroke-linecap:butt;stroke-linejoin:miter;stroke-opacity:1"
           d="m 163.93644,232.69154 c 0,-3.88368 2.6977,-7.78424 7.95127,-7.78424 6.71581,0 7.78423,5.3454 7.78423,5.3454 l -3.94223,0.8018 c 0,0 -1.11772,-2.57247 -3.80859,-2.57247 -2.41208,0 -3.74177,2.16491 -3.74177,4.14268 0,2.04391 1.15433,4.51018 3.70836,4.51018 3.21167,0 3.87541,-2.57247 3.87541,-2.57247 l 3.77518,0.83521 c 0,0 -1.06738,5.41221 -7.65058,5.41221 -5.55924,0 -7.95128,-4.38526 -7.95128,-8.1183 z"
           id="path885"
           sodipodi:nodetypes="ssccsssccss" />
      </g>
      <g
         id="g5576"
         transform="matrix(0.06913932,0,0,0.06913932,64.813224,224.57456)">
        <g
           id="g3262"
           inkscape:label="2012_NBCSPORTS_LOGO_GUIDELINES"
           transform="matrix(1.7500308,0,0,-1.7447744,-283.61337,1135.7199)">
          <g
             id="g3264" />
          <g
             id="g3328">
            <g
               id="g3330"
               clip-path="url(#clipPath3332)">
              <path
                 d="m 313.8086,636.6406 c 2.957,4.854 7.888,9.907 13.175,12.037 9.093,4.174 21.338,2.4 28.782,-4.178 7.205,-6.523 10.856,-15.454 9.14,-25.458 1.781,0.328 3.55,1.469 5.431,2.101 11.137,3.148 22.964,-0.268 30.116,-9.862 5.406,-6.832 6.792,-17.463 3.565,-25.696 -1.61,-4.169 -4.345,-7.926 -7.885,-11.105 l 0.361,-0.34 c 10.397,-0.513 20.611,-8.581 23.779,-18.488 3.392,-9.989 0.396,-20.659 -6.919,-27.956 -5.978,-5.886 -13.614,-7.948 -22.15,-7.761 h -154.786 c -12.727,-0.278 -22.541,5.356 -27.839,16.652 -4.137,9.717 -2.11,22.128 5.669,29.495 4.843,5.131 10.968,7.227 17.59,8.274 -7.462,6.916 -11.088,16.427 -8.981,26.592 1.519,8.247 8.543,16.594 16.599,19.47 7.123,2.823 16.743,2.329 23.261,-1.508 l 0.252,0.274 c -1.973,11.228 3.017,21.343 12.297,27.54 8.287,5.6 21.572,5.475 29.711,-0.491 3.635,-2.248 6.651,-6.073 8.832,-9.592"
                 style="fill:#ffffff;fill-opacity:1;fill-rule:nonzero;stroke:none"
                 id="path3344"
                 inkscape:connector-curvature="0" />
              <path
                 d="m 357.6504,632.4438 c 3.291,-6.693 1.391,-15.491 -2.12,-21.513 l -26.855,-60.45 -0.22,-0.26 -9.739,61.306 c -0.78,5.865 5.544,8.379 9.23,11.221 -0.165,0.864 -1.147,0.823 -1.756,1.221 l -9.053,0.099 -0.269,0.285 c 0.027,7.591 4.152,14.635 11.078,18.32 7.243,4.198 17.464,3.056 23.742,-2.308 2.55,-2.284 4.714,-4.939 5.962,-7.921"
                 style="fill:#5f53ae;fill-opacity:1;fill-rule:nonzero;stroke:none"
                 id="path3346"
                 inkscape:connector-curvature="0" />
              <path
                 d="m 308.1592,634.5645 c 2.174,-4.056 3.469,-8.689 2.685,-13.785 l -10.946,-70.186 c 0.044,-0.114 -0.04,-0.195 -0.143,-0.229 l -2.818,5.63 -27.459,61.319 c -2.564,7.903 -0.176,16.147 5.546,21.796 5.788,5.889 15.363,7.495 22.907,4.28 4.025,-1.718 7.834,-4.919 10.228,-8.825"
                 style="fill:#c81a46;fill-opacity:1;fill-rule:nonzero;stroke:none"
                 id="path3348"
                 inkscape:connector-curvature="0" />
              <path
                 d="m 397.373,605.001 c 3.688,-6.3 2.851,-15.825 -1.24,-21.67 -2.557,-4.108 -6.773,-6.144 -10.283,-8.851 l -56.882,-39.035 h -0.159 l 0.642,1.874 30.154,68.034 c 4.515,8.027 13.12,12.102 22.259,10.871 6.249,-1.133 12.484,-5.196 15.509,-11.223"
                 style="fill:#0e88d3;fill-opacity:1;fill-rule:nonzero;stroke:none"
                 id="path3350"
                 inkscape:connector-curvature="0" />
              <path
                 d="m 268.1558,605.353 31.377,-69.906 h -0.519 l -63.253,43.603 c -6.44,5.408 -9.055,13.54 -6.872,21.754 1.632,6.156 6.744,11.909 12.802,14.182 9.948,3.644 21.168,-0.223 26.465,-9.633"
                 style="fill:#f25c19;fill-opacity:1;fill-rule:nonzero;stroke:none"
                 id="path3352"
                 inkscape:connector-curvature="0" />
              <path
                 d="m 413.8701,555.6504 c 3.127,-6.648 1.893,-15.777 -2.604,-21.443 -4.468,-5.433 -10.455,-8.377 -17.467,-8.188 l -67.442,-0.056 56.501,39.298 c 5.533,3.557 13.912,4.206 19.924,1.331 4.666,-1.807 9.03,-6.379 11.088,-10.942"
                 style="fill:#33b540;fill-opacity:1;fill-rule:nonzero;stroke:none"
                 id="path3354"
                 inkscape:connector-curvature="0" />
              <path
                 d="m 214.1611,555.6504 c -3.164,-6.648 -1.929,-15.777 2.577,-21.443 4.479,-5.433 10.463,-8.377 17.472,-8.188 l 67.46,-0.056 -56.511,39.298 c -5.512,3.557 -13.91,4.206 -19.943,1.331 -4.649,-1.807 -9.025,-6.379 -11.055,-10.942"
                 style="fill:#fab20b;fill-opacity:1;fill-rule:nonzero;stroke:none"
                 id="path3356"
                 inkscape:connector-curvature="0" />
              <path
                 inkscape:connector-curvature="0"
                 id="path3949"
                 style="fill:#ffffff;fill-opacity:1;fill-rule:nonzero;stroke:none"
                 d="m 313.8086,636.6406 c 2.957,4.854 7.888,9.907 13.175,12.037 9.093,4.174 21.338,2.4 28.782,-4.178 7.205,-6.523 10.856,-15.454 9.14,-25.458 1.781,0.328 3.55,1.469 5.431,2.101 11.137,3.148 22.964,-0.268 30.116,-9.862 5.406,-6.832 6.792,-17.463 3.565,-25.696 -1.61,-4.169 -4.345,-7.926 -7.885,-11.105 l 0.361,-0.34 c 10.397,-0.513 20.611,-8.581 23.779,-18.488 3.392,-9.989 0.396,-20.659 -6.919,-27.956 -5.978,-5.886 -13.614,-7.948 -22.15,-7.761 h -154.786 c -12.727,-0.278 -22.541,5.356 -27.839,16.652 -4.137,9.717 -2.11,22.128 5.669,29.495 4.843,5.131 10.968,7.227 17.59,8.274 -7.462,6.916 -11.088,16.427 -8.981,26.592 1.519,8.247 8.543,16.594 16.599,19.47 7.123,2.823 16.743,2.329 23.261,-1.508 l 0.252,0.274 c -1.973,11.228 3.017,21.343 12.297,27.54 8.287,5.6 21.572,5.475 29.711,-0.491 3.635,-2.248 6.651,-6.073 8.832,-9.592" />
              <path
                 inkscape:connector-curvature="0"
                 id="path3951"
                 style="fill:#5f53ae;fill-opacity:1;fill-rule:nonzero;stroke:none"
                 d="m 357.6504,632.4438 c 3.291,-6.693 1.391,-15.491 -2.12,-21.513 l -26.855,-60.45 -0.22,-0.26 -9.739,61.306 c -0.78,5.865 5.544,8.379 9.23,11.221 -0.165,0.864 -1.147,0.823 -1.756,1.221 l -9.053,0.099 -0.269,0.285 c 0.027,7.591 4.152,14.635 11.078,18.32 7.243,4.198 17.464,3.056 23.742,-2.308 2.55,-2.284 4.714,-4.939 5.962,-7.921" />
              <path
                 inkscape:connector-curvature="0"
                 id="path3953"
                 style="fill:#c81a46;fill-opacity:1;fill-rule:nonzero;stroke:none"
                 d="m 308.1592,634.5645 c 2.174,-4.056 3.469,-8.689 2.685,-13.785 l -10.946,-70.186 c 0.044,-0.114 -0.04,-0.195 -0.143,-0.229 l -2.818,5.63 -27.459,61.319 c -2.564,7.903 -0.176,16.147 5.546,21.796 5.788,5.889 15.363,7.495 22.907,4.28 4.025,-1.718 7.834,-4.919 10.228,-8.825" />
              <path
                 inkscape:connector-curvature="0"
                 id="path3955"
                 style="fill:#0e88d3;fill-opacity:1;fill-rule:nonzero;stroke:none"
                 d="m 397.373,605.001 c 3.688,-6.3 2.851,-15.825 -1.24,-21.67 -2.557,-4.108 -6.773,-6.144 -10.283,-8.851 l -56.882,-39.035 h -0.159 l 0.642,1.874 30.154,68.034 c 4.515,8.027 13.12,12.102 22.259,10.871 6.249,-1.133 12.484,-5.196 15.509,-11.223" />
              <path
                 inkscape:connector-curvature="0"
                 id="path3957"
                 style="fill:#f25c19;fill-opacity:1;fill-rule:nonzero;stroke:none"
                 d="m 268.1558,605.353 31.377,-69.906 h -0.519 l -63.253,43.603 c -6.44,5.408 -9.055,13.54 -6.872,21.754 1.632,6.156 6.744,11.909 12.802,14.182 9.948,3.644 21.168,-0.223 26.465,-9.633" />
              <path
                 inkscape:connector-curvature="0"
                 id="path3959"
                 style="fill:#33b540;fill-opacity:1;fill-rule:nonzero;stroke:none"
                 d="m 413.8701,555.6504 c 3.127,-6.648 1.893,-15.777 -2.604,-21.443 -4.468,-5.433 -10.455,-8.377 -17.467,-8.188 l -67.442,-0.056 56.501,39.298 c 5.533,3.557 13.912,4.206 19.924,1.331 4.666,-1.807 9.03,-6.379 11.088,-10.942" />
              <path
                 inkscape:connector-curvature="0"
                 id="path3961"
                 style="fill:#fab20b;fill-opacity:1;fill-rule:nonzero;stroke:none"
                 d="m 214.1611,555.6504 c -3.164,-6.648 -1.929,-15.777 2.577,-21.443 4.479,-5.433 10.463,-8.377 17.472,-8.188 l 67.46,-0.056 -56.511,39.298 c -5.512,3.557 -13.91,4.206 -19.943,1.331 -4.649,-1.807 -9.025,-6.379 -11.055,-10.942" />
            </g>
          </g>
        </g>
        <g
           id="g5548">
          <g
             id="g5535" />
          <g
             id="g5539" />
        </g>
      </g>
    </g>
  </g>
</svg>
