<?xml version="1.0" encoding="UTF-8" standalone="no"?>
<svg
   width="1000"
   height="709.84729"
   viewBox="0 0 1000 709.84729"
   fill="none"
   version="1.1"
   id="svg12"
   xml:space="preserve"
   xmlns="http://www.w3.org/2000/svg"
   xmlns:svg="http://www.w3.org/2000/svg"><mask
     id="path-1-inside-1_2816_1208"
     fill="#ffffff"><path
       fill-rule="evenodd"
       clip-rule="evenodd"
       d="M 59.9713,1.2207e-4 H 10.0326 C 4.49113,1.2207e-4 2.74658e-4,4.49297 2.74658e-4,10.0322 v 20.044 29.8967 c 0,5.5387 4.490855342,10.0272 10.032325342,10.0272 h 49.9387 c 5.54,0 10.029,-4.4885 10.029,-10.0272 V 30.0762 10.0322 c 0,-5.53923 -4.489,-10.03207793 -10.029,-10.03207793 z"
       id="path1" /></mask><g
     id="g12"
     transform="matrix(16.556237,0,0,16.556237,-79.581269,-224.5174)"><path
       d="m 43.5552,19.2459 c 0.8834,-2.0045 -0.1034,-4.9625 -2.8237,-5.5692 -2.7677,-0.6262 -5.3286,1.4287 -5.0435,4.2496 h 1.7949 c 0,0 0.8359,-0.0084 1.0819,0.5284 0,0 -2.6531,0.9618 -2.4434,2.5218 l 1.6522,11.4767 5.7844,-13.2073 z"
       fill="#6e55dc"
       id="path4" /><path
       d="m 29.2691,13.6768 c -2.7203,0.6067 -3.7072,3.5646 -2.8237,5.5692 l 5.7843,13.2073 2.0661,-14.3452 c 0.4165,-2.916 -2.1947,-5.0743 -5.0239,-4.4341 z"
       fill="#ef1541"
       id="path5" /><path
       d="m 19.5763,20.395 c -1.3364,1.2134 -2.3764,4.5124 0.615,6.5114 l 11.5743,7.7135 -5.5495,-12.6481 c -1.3,-2.9327 -4.7387,-3.2962 -6.6398,-1.5768 z"
       fill="#ff7112"
       id="path6" /><path
       d="m 48.4561,29.2129 -11.2695,7.5123 h 13.3607 c 3.12,0 5.105,-2.4799 4.2188,-5.4574 -0.6011,-2.0185 -3.4388,-3.97 -6.3072,-2.0549 z"
       fill="#05ac3f"
       id="path7" /><path
       d="m 38.235,34.6199 11.5742,-7.7135 c 2.9915,-1.999 1.9515,-5.298 0.6151,-6.5114 -1.9011,-1.7194 -5.3426,-1.3559 -6.6398,1.5768 z"
       fill="#069de0"
       id="path8" /><path
       d="m 21.5445,29.2129 c -2.8684,-1.9151 -5.7061,0.0364 -6.3072,2.0549 -0.1649,0.5508 -0.2292,1.0848 -0.2069,1.588 0.028,0.6654 0.2097,1.2777 0.5172,1.8117 0.8975,-0.123 1.7614,-0.1901 2.5414,-0.1929 0.3354,-0.0056 3.4079,0.0084 4.4591,1.8983 0.0671,0.1202 0.1258,0.2377 0.179,0.3523 H 32.8168 L 21.5473,29.2129 Z"
       fill="#fccc12"
       id="path9" /><path
       d="m 20.5022,37.4353 c 0,0 -0.006,0.0089 -0.0089,0.0119 0.0029,-0.003 0.0059,-0.0089 0.0089,-0.0119 z"
       fill="#000000"
       id="path10" /></g><g
     id="g14"
     transform="matrix(16.556237,0,0,16.556237,-79.581269,-224.5174)"><path
       d="m 30.7172,42.6494 c -0.6849,-0.5284 -1.6578,-0.1118 -1.6578,-0.1118 -1.876,0.5983 -3.9001,2.0968 -5.5048,3.4975 0.7353,-0.8443 1.5684,-1.7557 2.5134,-2.7342 0,0 0.6765,-0.3467 0.1565,-0.8583 -0.52,-0.5145 -1.1323,-0.9953 -1.1323,-0.9953 0,0 -0.2488,-0.2181 -0.3634,-0.1259 -0.1174,0.0839 -0.0308,0.3244 -0.0084,0.3579 0.0224,0.0308 -0.3047,0.4361 -0.3047,0.4361 0,0 -0.0252,0.0224 -0.0559,0.056 -0.5424,0.4752 -1.5265,0.9505 -2.0269,1.1742 -1.0736,0.3942 -2.4491,0.8583 -3.928,1.3839 -0.0839,-0.0839 -0.1845,-0.165 -0.302,-0.2404 C 16.336,43.3819 11.0465,43.2897 9.01963,43.1359 6.82778,42.971 6.33294,42.8312 6.25187,42.4649 6.14283,41.9952 6.83617,41.327 7.82586,40.6057 11.6616,37.8071 16.9539,37.2368 18.6705,37.2648 c 1.8843,0.0307 2.4071,0.2516 2.4378,0.3914 0.0308,0.1314 -0.0615,0.2348 -0.0615,0.2348 -0.3019,0.3551 -0.7185,0.5732 -1.163,0.8611 -1.7277,1.1155 -3.5953,1.9375 -3.5953,1.9375 -0.411,0.3858 0.3858,0.4781 0.3858,0.4781 1.0932,-0.0336 2.1415,-0.2992 3.1256,-0.6766 2.0381,-0.7828 2.5302,-1.4846 2.5889,-1.9039 0.1006,-0.7213 -0.2125,-1.479 -0.1734,-1.4119 -0.52,-2.2171 -4.0314,-2.1276 -4.0314,-2.1276 -3.0361,0.0112 -7.5708,0.8779 -11.60224,3.833 -2.06883,1.5153 -1.75851,2.6029 -1.75851,2.6029 0,0 -0.03634,2.0996 1.55722,2.6113 0.64581,0.2068 1.11549,0.3187 2.16389,0.4221 2.04084,0.2041 3.54774,0.2349 5.66134,0.3747 1.2441,0.0894 2.1108,0.2264 2.6979,0.3802 -1.725,0.6374 -3.5087,1.3531 -5.0603,2.1304 -1.3559,0.6793 -3.38561,1.82 -4.1097,2.7286 -0.86947,1.0904 -0.05871,1.9571 -0.15936,1.767 0.12861,0.2404 0.66818,1.2106 2.98586,0.9198 1.1294,-0.1454 2.4546,-0.6822 3.4807,-1.2357 1.4621,-0.7968 2.5469,-1.725 3.2011,-2.3541 1.3167,-1.2693 1.6858,-2.245 1.6886,-3.0977 0,-0.3299 -0.0643,-0.5983 -0.1482,-0.808 1.5824,-0.548 2.9719,-0.9701 3.8916,-1.2301 -2.5832,3.1061 -6.9333,9.0443 -5.0043,11.773 0,0 0.123,0.2125 0.2936,0.4054 0,0 0.341,0.2824 0.4724,0.109 0.1286,-0.1733 -0.2516,-0.3578 -0.2516,-0.3578 -0.109,-0.137 -0.1789,-0.3523 -0.1314,-0.7158 0.0503,-0.3634 0.1482,-0.9338 0.4641,-1.7557 l 0.5312,-1.1966 v 0.0056 c 0,0 0,-0.0084 0.0056,-0.014 v 0.0084 c 0.6598,-1.1491 1.7864,-2.7287 3.1508,-4.0846 3.3996,-3.3773 6.4329,-4.7669 7.0536,-4.9654 0.4529,-0.1425 0.6542,-0.1034 0.7241,-0.0363 0.4333,0.3886 -0.6486,2.1276 -0.6486,2.1276 -0.0196,0.0307 -0.0336,0.0531 -0.056,0.0811 -1.9458,2.8433 -3.0892,3.6373 -4.1097,4.0259 -0.7045,0.2097 -1.1322,-0.0252 -1.2636,-0.1146 -0.2461,-0.2377 -0.3858,-0.5592 -0.3635,-0.7185 0.042,-0.2992 -0.0894,-0.288 -0.0894,-0.288 -0.4893,0.1649 -0.2153,1.0204 -0.2153,1.0204 0.3606,1.6216 2.6112,2.0354 4.7415,0.4362 2.8209,-2.1108 3.3801,-3.8023 3.7799,-4.8311 0.4081,-1.0289 -0.3579,-1.8201 -1.0456,-2.3569 M 17.6193,46.27 c -0.7073,1.2329 -3.1089,2.7091 -3.9112,3.162 -0.4446,0.2488 -1.4706,0.8471 -2.7315,1.3056 -1.39503,0.5033 -2.63633,0.7381 -2.75095,0.3942 -0.05033,-0.1453 -0.14259,-0.2069 0.31032,-0.6821 0.52839,-0.5592 2.15273,-1.5992 3.64843,-2.3737 1.7445,-0.903 3.6848,-1.7026 5.4768,-2.3568 0.0755,0.1398 0.0895,0.3187 -0.0447,0.5508"
       fill="#fccc12"
       id="path11" /><path
       d="m 65.1885,41.4612 c -0.1566,-0.9282 -1.5628,-1.1491 -4.037,-0.9506 -1.3028,0.1034 -3.7687,0.4529 -5.9829,0.808 l 2.1751,-2.4268 c 0,0 0.4725,-0.3047 -0.0112,-0.6793 -0.4864,-0.3747 -1.0148,-0.6263 -1.0148,-0.6263 0,0 -0.2181,-0.2097 -0.5983,0.1398 -0.2181,0.2041 -1.6215,1.6216 -3.5785,4.0735 -2.1835,0.2879 -4.6941,0.4669 -5.3427,0.5451 0,0 -0.3187,0.0643 -0.4417,-0.1537 0,0 -0.2851,-0.1985 -0.2208,0.2768 0,0 0.0698,1.2553 1.2804,1.0288 0.6905,-0.1314 2.0828,-0.3131 3.8245,-0.548 -0.2935,0.3858 -0.7464,0.9562 -1.2273,1.6328 -2.1723,2.3708 -5.857,6.1786 -6.6818,5.6726 0,0 -0.1789,-0.165 -0.0503,-0.5731 0.1817,-0.6039 0.8835,-1.7027 2.2869,-3.3494 0,0 0.6486,-0.7688 0.6207,-1.1071 -0.0392,-0.5228 -0.3299,-0.5088 -0.3299,-0.5088 0,0 -1.8676,-0.5564 -2.491,-1.1128 0.26,-0.4081 0.7381,-1.314 0.1314,-1.7389 0,0 -0.7884,-0.4977 -1.3615,0.6849 -0.2349,0.4697 -0.2125,0.9254 0.0894,1.342 -0.4249,0.4529 -1.6103,1.6104 -2.7901,1.9515 -0.0643,-0.411 -0.2404,-0.6598 -0.5032,-0.794 0,0 -0.6486,-0.3244 -0.9981,0.081 -0.3551,0.4054 -0.0447,0.8108 0.3159,1.0848 -0.1062,0.3187 -0.4026,0.7409 -0.8191,1.3895 -0.5284,0.8359 -1.2218,1.6271 -2.1695,2.2674 -0.3187,0.218 -1.6271,0.9757 -1.9738,-0.0615 -0.1873,-0.5676 0.1258,-1.6719 0.9338,-2.9244 1.6606,-2.5889 3.9895,-3.4388 4.6185,-3.0362 0,0 0.2964,0.2935 0.123,0.615 0,0 -0.0671,0.179 0.1678,0.2013 0.2404,0.0224 0.3746,-0.1873 0.4165,-0.3942 0.1007,-0.5479 -0.397,-1.1742 -0.9645,-1.6271 -0.1705,-0.1314 -0.369,-0.2293 -0.5899,-0.3411 0,0 -0.9897,-0.3523 -2.34,0.3243 -0.4138,0.2013 -2.1891,1.1798 -3.4751,3.4724 -0.4054,0.7269 -0.6654,1.5041 -0.6542,2.2562 0.0028,0.4976 0.0951,0.9841 0.3607,1.4398 0.1034,0.1733 0.643,0.8835 1.3699,1.2609 1.4509,0.7409 3.1563,-0.671 3.8189,-1.2777 1.1686,-1.068 2.0633,-2.4826 2.2673,-3.0977 1.5293,-0.3942 3.0418,-1.9291 3.5366,-2.4659 0.0895,0.0615 0.1818,0.1202 0.288,0.1789 l 0.917,0.4893 c -0.5368,0.6151 -0.5396,0.6207 -1.1127,1.4259 -0.5871,0.8303 -2.0437,2.7818 -1.0987,4.0343 0.1845,0.2516 0.4333,0.5563 0.8443,0.7213 1.2469,0.492 2.6587,-0.7353 4.8422,-3.0279 0.3438,-0.3634 0.6793,-0.7241 0.998,-1.0819 -0.1369,0.2768 -0.26,0.5507 -0.3634,0.8163 -0.5088,1.3252 -0.2153,2.5246 0.8555,3.232 0.6318,0.4221 1.4538,0.2292 2.3959,-0.3859 1.8592,-1.2301 4.599,-3.9895 6.3407,-5.8264 -0.0615,0.2517 -0.1202,0.5284 -0.1761,0.8388 -0.4166,2.3037 -1.8144,5.2644 -2.3652,4.5068 -0.0084,0.109 -0.0196,-0.5144 -0.3159,-0.7661 -0.2712,-0.2236 -0.5144,-0.2851 -0.8191,-0.0838 -0.3942,0.26 -0.1957,1.2301 1.0204,1.8508 0.2796,0.1425 0.5256,0.218 0.7548,0.2432 0.6654,0.1146 2.0046,0.1258 3.5842,-1.0596 2.1387,-1.6048 4.4535,-3.9085 4.4535,-3.9085 0,0 0.4641,-0.411 0.0252,-0.6654 0,0 -0.2125,-0.1118 -0.4138,0.0699 -0.1146,0.1034 -0.2208,0.2404 -0.2208,0.2404 0.0335,-0.0335 -3.2403,3.0894 -5.1805,4.1378 0.3131,-0.3858 0.5088,-0.9366 0.671,-1.5936 0.1398,-0.5508 0.3774,-2.0353 0.6234,-3.1229 0.137,-0.5899 0.3243,-1.068 0.3886,-1.2078 0.2349,-0.5312 0.562,-0.4864 0.6374,-0.643 0.056,-0.109 0.0336,-0.2069 -0.1062,-0.383 -0.1174,-0.1454 -0.274,-0.2964 -0.4026,-0.4166 -0.1565,-0.1426 -0.478,-0.3579 -0.6486,-0.3914 -0.1146,-0.0224 -0.2488,-0.014 -0.3718,0.0811 -0.1062,0.0838 -0.2936,0.2544 -0.506,0.6095 -1.1714,1.2832 -5.024,5.3846 -7.3779,6.7853 0.1258,-0.0755 -1.9123,1.3028 -1.4818,-0.4892 0.1957,-0.8164 1.0149,-2.6421 3.3157,-5.5245 l 1.1966,-1.3336 c 0.9813,-0.1426 2.0018,-0.2936 3.0194,-0.4585 0,0 8.9827,-1.1127 6.5532,0.7996 0,0 0.1565,0.3047 0.5312,0.0056 0.7828,-0.6207 1.0735,-1.1603 1.0288,-1.4426"
       fill="#fccc12"
       id="path12" /></g><defs
     id="defs12" /></svg>
