<?xml version="1.0" encoding="UTF-8" standalone="no"?>
<!-- Generator: Adobe Illustrator 16.0.0, SVG Export Plug-In . SVG Version: 6.00 Build 0)  -->

<svg
   xmlns:dc="http://purl.org/dc/elements/1.1/"
   xmlns:cc="http://creativecommons.org/ns#"
   xmlns:rdf="http://www.w3.org/1999/02/22-rdf-syntax-ns#"
   xmlns:svg="http://www.w3.org/2000/svg"
   xmlns="http://www.w3.org/2000/svg"
   xmlns:sodipodi="http://sodipodi.sourceforge.net/DTD/sodipodi-0.dtd"
   xmlns:inkscape="http://www.inkscape.org/namespaces/inkscape"
   version="1.1"
   id="Layer_1"
   x="0px"
   y="0px"
   width="1000.486px"
   height="538.73px"
   viewBox="0 0 1000.486 538.73"
   enable-background="new 0 0 1000.486 538.73"
   xml:space="preserve"
   inkscape:version="0.91 r13725"
   sodipodi:docname="TBS.svg"><metadata
     id="metadata13"><rdf:RDF><cc:Work
         rdf:about=""><dc:format>image/svg+xml</dc:format><dc:type
           rdf:resource="http://purl.org/dc/dcmitype/StillImage" /></cc:Work></rdf:RDF></metadata><defs
     id="defs11" /><sodipodi:namedview
     pagecolor="#ffffff"
     bordercolor="#666666"
     borderopacity="1"
     objecttolerance="10"
     gridtolerance="10"
     guidetolerance="10"
     inkscape:pageopacity="0"
     inkscape:pageshadow="2"
     inkscape:window-width="640"
     inkscape:window-height="480"
     id="namedview9"
     showgrid="false"
     inkscape:zoom="0.30984941"
     inkscape:cx="500.24301"
     inkscape:cy="269.36499"
     inkscape:window-x="0"
     inkscape:window-y="0"
     inkscape:window-maximized="0"
     inkscape:current-layer="Layer_1" /><g
     id="g3"
     style="fill:#000000"><path
       fill="#242021"
       d="M942.465,77.745l-29.806-29.77L864.684,0H0v390.453l54.461,54.425l54.371,54.382l39.456,39.471h852.199   V135.806L942.465,77.745z M769.112,349.786c-66.169-13.476-124.3-32.446-124.3-94.852v-0.815   c0-56.049,43.818-99.487,125.136-99.487h55.959l77.328,77.985H778.682c-14.774,0-21.503,5.065-21.503,12.235v0.858   c0,7.981,8.003,13.046,39.195,18.925c75.429,13.904,126,35.838,126,95.234v0.861c0,61.93-50.989,99.867-130.229,99.867h-73.434   l-77.865-77.983h143.855c17.69,0,25.28-4.585,25.28-12.612v-0.814C809.982,360.73,800.722,356.094,769.112,349.786    M480.204,159.122c85.894,0,155.527,69.674,155.527,155.542c0,85.919-69.636,155.542-155.527,155.542   c-34.035,0-65.479-10.944-91.092-29.483V460.6h-89.62V77.222h101.713v103.455C424.365,167.008,451.354,159.122,480.204,159.122    M89.944,77.222h105.712v96.764h77.483v105.749h-77.483v180.864l-105.712-105.7V77.222z"
       id="path5"
       style="fill:#000000" /><path
       fill="#242021"
       d="M480.193,368.71c29.815,0,54.018-24.229,54.018-54.047s-24.2-53.996-54.018-53.996   c-29.832,0-54.021,24.179-54.021,53.996S450.361,368.71,480.193,368.71"
       id="path7"
       style="fill:#000000" /></g></svg>