<?xml version="1.0" encoding="UTF-8" standalone="no"?>
<svg
   xmlns:dc="http://purl.org/dc/elements/1.1/"
   xmlns:cc="http://creativecommons.org/ns#"
   xmlns:rdf="http://www.w3.org/1999/02/22-rdf-syntax-ns#"
   xmlns:svg="http://www.w3.org/2000/svg"
   xmlns="http://www.w3.org/2000/svg"
   xmlns:sodipodi="http://sodipodi.sourceforge.net/DTD/sodipodi-0.dtd"
   xmlns:inkscape="http://www.inkscape.org/namespaces/inkscape"
   width="730.8949"
   height="405.45816"
   viewBox="0 0 584.71592 324.36653"
   version="1.1"
   id="svg2"
   inkscape:version="0.48.4 r9939"
   sodipodi:docname="AJAX1.svg">
  <metadata
     id="metadata33">
    <rdf:RDF>
      <cc:Work
         rdf:about="">
        <dc:format>image/svg+xml</dc:format>
        <dc:type
           rdf:resource="http://purl.org/dc/dcmitype/StillImage" />
      </cc:Work>
    </rdf:RDF>
  </metadata>
  <defs
     id="defs31" />
  <sodipodi:namedview
     pagecolor="#ffffff"
     bordercolor="#666666"
     borderopacity="1"
     objecttolerance="10"
     gridtolerance="10"
     guidetolerance="10"
     inkscape:pageopacity="0"
     inkscape:pageshadow="2"
     inkscape:window-width="640"
     inkscape:window-height="480"
     id="namedview29"
     showgrid="false"
     fit-margin-top="0.5"
     fit-margin-right="0.5"
     fit-margin-bottom="0.5"
     fit-margin-left="0.5"
     inkscape:zoom="0.24597004"
     inkscape:cx="597.92147"
     inkscape:cy="71.853011"
     inkscape:window-x="0"
     inkscape:window-y="0"
     inkscape:window-maximized="0"
     inkscape:current-layer="svg2" />
  <g
     id="#ea0001ff"
     transform="translate(-4.0540696,-138.01988)">
    <path
       d="m 260.52,152.4 c 17.24,-11.11 38.36,-13.61 58.44,-13.91 17.68,-0.8 34.78,5.35 50.4,13.08 8.54,4.24 16.63,9.3 24.57,14.55 -6.83,12.61 -14.26,24.88 -21.32,37.37 -2.25,4.13 -4.97,8.03 -6.77,12.41 -2.77,-0.84 -4.7,-3.11 -6.91,-4.82 -8.53,-6.86 -17.53,-13.92 -28.43,-16.38 -6.09,-1.19 -13.08,-1.25 -18.33,2.49 -4.1,2.83 -6.39,8.88 -3.58,13.35 3.04,5.18 8.33,8.52 13.46,11.37 9.39,4.6 18.89,8.97 28.2,13.72 11.7,6.13 22.42,15.39 27.39,27.92 5.77,14.52 3.94,30.87 -0.67,45.44 -5.01,15.76 -16.11,29.34 -30.32,37.74 -15.85,9.42 -34.38,13.39 -52.63,14.31 -9.29,0.63 -18.66,0.44 -27.88,-0.91 -17.56,-3.67 -34.07,-11.33 -49.28,-20.71 -8.37,-5.32 -16.67,-11.07 -23.32,-18.49 l -0.07,-0.82 c 12.1,-16.01 24.63,-31.69 36.66,-47.75 9.35,9.31 19.22,18.3 30.72,24.9 7.04,4.01 14.9,7.16 23.13,6.99 5.13,-0.05 10.61,0.36 15.34,-2.01 5.66,-2.73 6.61,-11.44 1.98,-15.55 -4.2,-3.8 -10,-4.79 -15.11,-6.84 -11.07,-4.29 -22.88,-7.29 -32.63,-14.35 -13.27,-9.05 -22.86,-23.61 -24.98,-39.62 -1.87,-10.96 0.06,-22.19 3.32,-32.7 4.82,-16.15 14.18,-31.57 28.62,-40.78 z"
       id="path5"
       style="fill:#ea0001;fill-opacity:1;stroke:none"
       inkscape:connector-curvature="0" />
    <path
       d="m 27.78,142.79 c 25.95,0.03 51.9,0.04 77.85,0 -7.1,40.01 -14.03,80.06 -21.01,120.1 -1.22,7.66 -2.95,15.65 -0.81,23.31 1.22,4.6 5.32,8.07 10,8.74 7.37,1.28 15.95,-0.22 21.09,-6.08 4.34,-4.93 5.77,-11.56 7.07,-17.82 7.52,-42.74 14.88,-85.52 22.46,-128.26 25.88,0.08 51.77,0.01 77.65,0.03 -4.02,25.13 -8.75,50.15 -12.97,75.25 -3.43,18.96 -6.52,37.99 -10.07,56.93 -4.67,23.66 -15.68,46.9 -34.58,62.45 -20.84,17.45 -48.82,23.88 -75.51,23.53 C 72.8,361.37 56.38,358.01 42.21,350.08 28.87,342.7 17.95,331.01 11.62,317.12 4.44,301.61 2.83,283.81 6.01,267.09 c 7.27,-41.43 14.4,-82.88 21.77,-124.3 z"
       id="path7"
       style="fill:#ea0001;fill-opacity:1;stroke:none"
       inkscape:connector-curvature="0" />
    <path
       d="m 472.73,142.8 c 27.93,0.04 55.86,0.04 83.79,0 9.95,66.74 19.62,133.52 29.52,200.26 0.73,4.86 1.21,9.76 2.33,14.55 -24.56,0.23 -49.12,0.05 -73.68,0.09 -0.98,-10.63 -1.71,-21.31 -3.05,-31.9 -18.35,0.09 -36.7,0.08 -55.05,0.01 -4.56,10.52 -8.77,21.19 -12.99,31.84 -27.51,0.08 -55.02,0.15 -82.52,-0.03 37.26,-71.58 74.39,-143.23 111.65,-214.82 m 28.77,73.54 c -0.71,2.54 -1.53,5.05 -2.52,7.49 -7.36,18.6 -14.37,37.34 -21.85,55.88 9.93,0.03 19.85,-0.07 29.78,0.05 -0.67,-15.61 -2.62,-31.14 -3.71,-46.73 -0.62,-5.56 -0.66,-11.18 -1.7,-16.69 z"
       id="path9"
       style="fill:#ea0001;fill-opacity:1;stroke:none"
       inkscape:connector-curvature="0" />
  </g>
  <g
     id="#000004b1"
     transform="translate(-4.0540696,-138.01988)" />
  <g
     id="#0200feff"
     transform="translate(-4.0540696,-138.01988)">
    <path
       d="m 377.13,383.17 c 10.36,-0.46 21.37,2.34 28.89,9.82 5.01,4.67 8.08,11.19 8.99,17.94 1.65,13.03 -2.9,26.65 -11.93,36.17 -9.25,9.71 -22.7,15.19 -36.09,14.86 -10.32,0.35 -21.27,-2.76 -28.5,-10.45 -5.59,-5.6 -8.36,-13.65 -8.14,-21.49 -0.35,-11.33 4.16,-22.56 11.73,-30.92 8.87,-9.78 21.87,-15.59 35.05,-15.93 m -4.66,20.42 c -4.03,1.55 -7.27,4.66 -9.55,8.27 -3.22,4.98 -5.35,11.17 -3.86,17.1 0.89,4.28 3.62,8.69 8.06,9.9 2.89,1.09 6.07,0.18 8.72,-1.14 9.95,-5.73 14.24,-19.88 8.31,-29.89 -2.18,-4.07 -7.39,-6.05 -11.68,-4.24 z"
       id="path17"
       style="fill:#0200fe;fill-opacity:1;stroke:none"
       inkscape:connector-curvature="0" />
    <path
       d="m 18.16,384.43 c 8.88,-0.01 17.75,-0.01 26.63,0 5.74,13.29 11.31,26.65 17.1,39.91 1.71,-13.32 3.87,-26.58 5.65,-39.89 8.92,-0.02 17.84,-0.1 26.76,0.05 -4.31,25.4 -7.82,50.95 -12.24,76.34 -8.82,0.14 -17.64,0.11 -26.45,-0.01 C 50,447.97 44.22,435.19 38.53,422.37 c -1.94,12.83 -3.79,25.67 -5.82,38.49 -8.83,0.12 -17.67,0 -26.5,0.07 3.8,-25.53 7.92,-51.01 11.95,-76.5 z"
       id="path19"
       style="fill:#0200fe;fill-opacity:1;stroke:none"
       inkscape:connector-curvature="0" />
    <path
       d="m 105.76,384.51 c 17.04,-0.14 34.09,-0.07 51.13,-0.03 -0.88,6.49 -2.03,12.94 -2.99,19.42 -7.99,0.23 -15.97,0.01 -23.95,0.14 -0.41,2.89 -0.81,5.79 -1.16,8.7 7.25,-0.09 14.5,-0.02 21.76,-0.04 -1.01,6.53 -2.16,13.05 -3.22,19.58 -7.28,-0.02 -14.55,-0.03 -21.83,0.01 -0.46,2.97 -0.92,5.94 -1.46,8.91 8.26,0.12 16.52,-0.11 24.78,0.13 -1.14,6.48 -2.02,13.01 -3.05,19.51 -17.29,0.11 -34.58,0.12 -51.87,0 3.77,-25.47 8.01,-50.87 11.86,-76.33 z"
       id="path21"
       style="fill:#0200fe;fill-opacity:1;stroke:none"
       inkscape:connector-curvature="0" />
    <path
       d="m 163.8,384.42 c 26.33,-0.01 52.67,-0.01 79.01,0 1.31,14.29 2.57,28.59 3.77,42.89 5.97,-14.27 11.6,-28.67 17.61,-42.92 7.11,0.06 14.23,-0.03 21.35,0.06 1.62,13.85 3.13,27.72 4.88,41.55 5.83,-13.94 12.13,-27.68 18.08,-41.57 9.23,-0.03 18.47,-0.03 27.7,0 -11.62,25.56 -23.85,50.85 -35.56,76.38 -8.27,0.22 -16.55,0.05 -24.82,0.1 -2.21,-13.6 -4.05,-27.26 -6.35,-40.85 -5.14,13.66 -10.77,27.14 -16.02,40.77 -9.14,0.16 -18.29,0.09 -27.44,0.03 -2.51,-18.93 -4.94,-37.87 -7.49,-56.8 -4.96,-0.01 -9.93,-0.05 -14.89,0.05 -2.93,18.93 -5.89,37.87 -8.94,56.79 -9.24,-0.01 -18.49,0.09 -27.74,-0.06 2.84,-18.95 5.84,-37.88 8.91,-56.8 -5.09,0.02 -10.17,-0.01 -15.26,0.02 1.07,-6.55 2,-13.12 3.2,-19.64 z"
       id="path23"
       style="fill:#0200fe;fill-opacity:1;stroke:none"
       inkscape:connector-curvature="0" />
    <path
       d="m 428.9,384.48 c 13.7,-0.14 27.4,-0.03 41.1,-0.06 7.78,0.13 16.3,1.75 21.96,7.53 6.13,6.56 5.62,16.84 2.39,24.65 -3.15,7.44 -10.91,11.12 -18.1,13.62 4.15,10.2 8.23,20.42 12.27,30.66 -9.15,-0.01 -18.3,0.17 -27.44,-0.06 -0.18,-0.26 -0.54,-0.77 -0.72,-1.02 -2.85,-7.75 -5.2,-15.69 -7.97,-23.47 -1.42,0 -2.83,0 -4.24,0.01 -1.38,8.18 -2.54,16.4 -3.96,24.59 -9.04,-0.08 -18.08,0.09 -27.12,-0.1 3.79,-25.47 8.1,-50.87 11.83,-76.35 m 24.72,15.8 c -0.69,5.2 -1.46,10.39 -2.39,15.55 3.53,-0.04 7.11,0.31 10.62,-0.22 5.16,-0.95 7.64,-7.66 5.55,-12.07 -3.3,-4.06 -9.15,-3.22 -13.78,-3.26 z"
       id="path25"
       style="fill:#0200fe;fill-opacity:1;stroke:none"
       inkscape:connector-curvature="0" />
    <path
       d="m 510.32,384.43 c 9.08,-0.03 18.15,-0.05 27.23,0.02 -1.54,9.43 -3.82,18.77 -4.78,28.28 8.38,-8.93 15.48,-19.01 23.41,-28.34 10.07,0.09 20.14,-0.07 30.21,0.09 -9.08,11.88 -18.64,23.4 -27.97,35.09 -0.58,0.91 -1.94,1.97 -1.08,3.16 5.69,12.75 11.59,25.42 17.3,38.16 -9.81,-0.01 -19.62,0.13 -29.43,-0.08 -4.56,-11.29 -9.28,-22.53 -13.91,-33.8 -0.38,0.06 -1.14,0.18 -1.53,0.24 -2.07,11.21 -4.16,22.42 -6.24,33.63 -9.04,0.06 -18.09,0.03 -27.12,0.02 4.52,-25.51 9.36,-50.96 13.91,-76.47 z"
       id="path27"
       style="fill:#0200fe;fill-opacity:1;stroke:none"
       inkscape:connector-curvature="0" />
  </g>
</svg>
