<?xml version="1.0" encoding="UTF-8" standalone="no"?>
<svg
   width="989.47998"
   height="513"
   viewBox="0 0 989.48 513"
   id="svg1715"
   version="1.1"
   xmlns="http://www.w3.org/2000/svg"
   xmlns:svg="http://www.w3.org/2000/svg">
  <defs
     id="defs1719" />
  <path
     d="m 70.64,93.51 h 90.09 a 8.7,8.7 0 0 1 7.82,5.79 l 50.66,164.14 a 2.25,2.25 0 0 0 2.12,1.46 2.33,2.33 0 0 0 2.11,-1.46 L 274.1,99.3 a 8.66,8.66 0 0 1 7.8,-5.79 h 185.71 a 6.07,6.07 0 0 1 6.05,6.09 v 108.32 h 78.61 a 6.06,6.06 0 0 0 6,-6 V 99.55 a 6.1,6.1 0 0 1 6.05,-6 h 85 a 6.11,6.11 0 0 1 6.1,6 v 102.33 a 6.07,6.07 0 0 0 6,6 h 88.53 v -62 a 11.83,11.83 0 0 1 4.92,-9.54 L 807.53,97 a 19.11,19.11 0 0 1 11.08,-3.47 h 77.31 a 6.06,6.06 0 0 1 6,6.09 v 313.85 a 6.07,6.07 0 0 1 -6,6 H 810.8 a 6.06,6.06 0 0 1 -6,-6 V 214 a 6.1,6.1 0 0 0 -6,-6.05 h -48.72 v 91.14 a 6.07,6.07 0 0 1 -6.1,6 H 661.5 a 6.07,6.07 0 0 0 -6,6.1 v 102.28 a 6.11,6.11 0 0 1 -6.1,6 h -85 a 6.07,6.07 0 0 1 -6.05,-6 V 311.2 a 6.11,6.11 0 0 0 -6,-6.1 h -78.69 v 108.37 a 6.07,6.07 0 0 1 -6.05,6 h -85.1 a 6,6 0 0 1 -6,-6 v -303 a 2.35,2.35 0 0 0 -2.16,-2.06 2.26,2.26 0 0 0 -2.17,1.56 L 263.42,413.82 a 9.27,9.27 0 0 1 -8.11,5.7 h -68 a 9.24,9.24 0 0 1 -8.1,-5.7 L 66.67,99.25 c -1.16,-3.17 0.65,-5.74 4,-5.74 M 0,513 H 989.48 V 0 H 0 Z"
     id="path1711" />
</svg>
